<?xml version="1.0" encoding="utf-8"?>
<!-- Generator: Adobe Illustrator 22.0.1, SVG Export Plug-In . SVG Version: 6.00 Build 0)  -->
<svg version="1.1" id="Layer_1" xmlns="http://www.w3.org/2000/svg" xmlns:xlink="http://www.w3.org/1999/xlink" x="0px" y="0px"
	 viewBox="0 0 96 96" style="enable-background:new 0 0 96 96;" xml:space="preserve">
<style type="text/css">
	.st0{fill:#939393;}
</style>
<title></title>
<g id="icomoon-ignore">
</g>
<path class="st0" d="M86.4,9.6c5.3,0,9.6,4.3,9.6,9.6l0,0v57.6c0,5.3-4.3,9.6-9.6,9.6l0,0H9.6c-5.3,0-9.6-4.3-9.6-9.6l0,0V19.2
	c0-5.3,4.3-9.6,9.6-9.6C9.6,9.6,86.4,9.6,86.4,9.6z M65.4,53.3L96,76.8v-9.6L71.4,48.5L96,28.8v-9.6L48,57.6L0,19.2v9.6l24.6,19.7
	L0,67.2v9.6l30.6-23.5L48,67.2C48,67.2,65.4,53.3,65.4,53.3z"/>
</svg>
